# xmcd
#
# Track frame offsets:
#	150
#	11612
#	23498
#	35134
#	47939
#	60734
#	74002
#	85354
#	98416
#	108591
#	118888
#	129437
#	140427
#	151120
#	162599
#	174145
#	186432
#	199315
#	210819
#	222724
#
# Disc length: 3111 seconds
#
# Revision: 0
# Processed by: cddbd v1.5.2PL0 Copyright (c) Steve Scherf et al.
# Submitted via: EasyCDDAExtractor 9.1.0.1
#
DISCID=230c2514
DTITLE=Kitty Wells - Country Music Legends Disc 1
DYEAR=2007
DGENRE=Country
TTITLE0=It Wasn't God Who Made Honky Tonk Angels
TTITLE1=Paying For That Back Street Affair
TTITLE2=Hey Joe
TTITLE3=Cheatin's A Sin
TTITLE4=Release Me
TTITLE5=One By One
TTITLE6=Make Believe
TTITLE7=Makin' Believe
TTITLE8=Whose Shoulder Will You Cry On
TTITLE9=I Heard The Jukebox Playing
TTITLE10=A Wedding Ring Ago
TTITLE11=Divided By Two
TTITLE12=I Don't Want Your Money, I Want Your Time
TTITLE13=Crying Steel Guitar Waltz
TTITLE14=Honky Tonk Waltz
TTITLE15=The Life They Live In Songs
TTITLE16=My Cold Cold Heart Is Melted Now
TTITLE17=You Said You Could Do Without Me
TTITLE18=I Gave My Wedding Dress Away
TTITLE19=The Things I Might Have Been
EXTD=
EXTT0=
EXTT1=
EXTT2=
EXTT3=
EXTT4=
EXTT5=
EXTT6=
EXTT7=
EXTT8=
EXTT9=
EXTT10=
EXTT11=
EXTT12=
EXTT13=
EXTT14=
EXTT15=
EXTT16=
EXTT17=
EXTT18=
EXTT19=
PLAYORDER=
